<svg width="331" height="145" viewBox="0 0 331 145" fill="none" xmlns="http://www.w3.org/2000/svg">
<path d="M97.5719 84.4C98.2385 84.4 98.7719 84.6667 99.1719 85.2C99.7052 85.6 99.9719 86.1333 99.9719 86.8V102.8C99.9719 103.467 99.7052 104.067 99.1719 104.6C98.7719 105 98.2385 105.2 97.5719 105.2H89.1719C88.5052 105.2 88.1719 105.533 88.1719 106.2V139.6C88.1719 140.267 87.9052 140.867 87.3719 141.4C86.9719 141.8 86.4385 142 85.7719 142H67.3719C66.7052 142 66.1052 141.8 65.5719 141.4C65.1719 140.867 64.9719 140.267 64.9719 139.6V106.2C64.9719 105.533 64.6385 105.2 63.9719 105.2H3.17188C2.50521 105.2 1.90521 105 1.37188 104.6C0.971875 104.067 0.771876 103.467 0.771876 102.8V90C0.771876 89.2 0.971875 88.2 1.37188 87L39.1719 3.79999C39.7052 2.59999 40.6385 1.99999 41.9719 1.99999H61.5719C62.5052 1.99999 63.1052 2.26666 63.3719 2.79999C63.7719 3.19999 63.7719 3.86666 63.3719 4.79999L27.7719 83.2C27.6385 83.4667 27.6385 83.7333 27.7719 84C27.9052 84.2667 28.1052 84.4 28.3719 84.4H63.9719C64.6385 84.4 64.9719 84.0667 64.9719 83.4V56.2C64.9719 55.5333 65.1719 55 65.5719 54.6C66.1052 54.0667 66.7052 53.8 67.3719 53.8H85.7719C86.4385 53.8 86.9719 54.0667 87.3719 54.6C87.9052 55 88.1719 55.5333 88.1719 56.2V83.4C88.1719 84.0667 88.5052 84.4 89.1719 84.4H97.5719ZM166.764 144.2C152.764 144.2 141.631 140.267 133.364 132.4C125.231 124.4 121.164 113.667 121.164 100.2V43.8C121.164 30.4667 125.231 19.9333 133.364 12.2C141.631 4.33333 152.764 0.399999 166.764 0.399999C180.764 0.399999 191.897 4.33333 200.164 12.2C208.564 19.9333 212.764 30.4667 212.764 43.8V100.2C212.764 113.667 208.564 124.4 200.164 132.4C191.897 140.267 180.764 144.2 166.764 144.2ZM166.764 124C173.697 124 179.231 122 183.364 118C187.497 113.867 189.564 108.333 189.564 101.4V43C189.564 36.0667 187.497 30.6 183.364 26.6C179.231 22.4667 173.697 20.4 166.764 20.4C159.964 20.4 154.497 22.4667 150.364 26.6C146.364 30.6 144.364 36.0667 144.364 43V101.4C144.364 108.333 146.364 113.867 150.364 118C154.497 122 159.964 124 166.764 124ZM328.236 84.4C328.903 84.4 329.436 84.6667 329.836 85.2C330.369 85.6 330.636 86.1333 330.636 86.8V102.8C330.636 103.467 330.369 104.067 329.836 104.6C329.436 105 328.903 105.2 328.236 105.2H319.836C319.169 105.2 318.836 105.533 318.836 106.2V139.6C318.836 140.267 318.569 140.867 318.036 141.4C317.636 141.8 317.103 142 316.436 142H298.036C297.369 142 296.769 141.8 296.236 141.4C295.836 140.867 295.636 140.267 295.636 139.6V106.2C295.636 105.533 295.303 105.2 294.636 105.2H233.836C233.169 105.2 232.569 105 232.036 104.6C231.636 104.067 231.436 103.467 231.436 102.8V90C231.436 89.2 231.636 88.2 232.036 87L269.836 3.79999C270.369 2.59999 271.303 1.99999 272.636 1.99999H292.236C293.169 1.99999 293.769 2.26666 294.036 2.79999C294.436 3.19999 294.436 3.86666 294.036 4.79999L258.436 83.2C258.303 83.4667 258.303 83.7333 258.436 84C258.569 84.2667 258.769 84.4 259.036 84.4H294.636C295.303 84.4 295.636 84.0667 295.636 83.4V56.2C295.636 55.5333 295.836 55 296.236 54.6C296.769 54.0667 297.369 53.8 298.036 53.8H316.436C317.103 53.8 317.636 54.0667 318.036 54.6C318.569 55 318.836 55.5333 318.836 56.2V83.4C318.836 84.0667 319.169 84.4 319.836 84.4H328.236Z" fill="black"/>
</svg>
