<svg width="22" height="20" viewBox="0 0 22 20" fill="none" xmlns="http://www.w3.org/2000/svg">
<path fill-rule="evenodd" clip-rule="evenodd" d="M16.0069 8.11855L17.1668 11.8265C15.424 13.433 14.841 14.1818 14.0627 16.774L10.4541 16.8194L9.09752 13.7002C9.55637 13.4737 10.536 12.7599 10.708 12.4278C10.0701 11.2391 8.59183 11.5874 7.01622 11.5862C5.49701 11.5851 3.97416 11.5792 2.45513 11.5886C1.7646 12.5602 1.38649 13.5294 1.55037 15.1024C1.95534 14.8842 3.65486 12.3384 6.44384 13.7291C7.85077 14.4303 8.65722 16.3759 9.7129 17.6759L15.0457 17.6818L15.1944 16.9795C15.4788 14.1064 17.5002 12.7934 19.7465 13.3112C20.7297 13.5388 21.0527 14.2214 21.838 13.4552C20.9122 11.6385 19.0839 11.5897 18.6356 11.3366C18.2295 11.1067 18.2693 10.7109 18.0118 10.2384C18.4612 9.83672 19.195 9.71954 18.9902 8.79653C18.8101 7.98277 17.9181 7.92473 17.3435 8.27184L16.9982 7.7378L16.0067 8.11852L16.0069 8.11855ZM8.17997 10.4229L12.7728 12.091C12.2085 16.09 11.1189 16.8018 13.6155 16.29C13.7992 15.6736 14.628 12.3106 14.5882 11.6963C14.5098 10.5053 12.2578 9.88535 11.1845 9.47099L11.5543 6.80103C12.0342 7.00876 11.7602 6.84512 12.1583 7.19111C12.7096 7.66822 12.994 8.32183 14.0661 8.11983C14.4828 8.04087 16.5686 7.24804 16.8952 6.99496C16.9865 4.96926 15.1675 6.42617 13.7713 6.70589C13.1439 5.95713 11.812 4.14504 10.8124 3.95936C8.63655 3.5566 8.88693 4.16249 8.47494 6.9555C8.30642 8.0978 7.93182 9.39678 8.17996 10.4229L8.17997 10.4229ZM0.0171154 6.11388C0.0171154 7.74951 -0.069533 9.01138 0.147092 10.5739C1.06352 10.8955 6.22314 10.9431 7.02113 10.5356C7.28333 9.65442 7.17095 7.23406 7.17095 6.11409C7.17095 5.18186 6.89243 4.98921 5.98062 4.98921H1.2438C0.274612 4.98921 0.0172091 5.10292 0.0172091 6.11409L0.0171154 6.11388ZM20.6594 17.4194C19.9724 19.5705 16.4307 18.8054 17.1785 16.3421C17.8503 14.1272 21.364 15.2149 20.6594 17.4194ZM18.0013 14.01C14.0286 15.23 15.9834 21.133 19.9407 19.8072C21.2271 19.3754 22.4502 17.7781 21.8369 15.93C21.3897 14.5881 19.8635 13.4377 18.0014 14.0099L18.0013 14.01ZM4.39217 15.1813C6.74946 14.5602 7.56067 18.0963 5.29229 18.6511C2.92093 19.2304 1.9951 15.814 4.39217 15.1813ZM3.98255 13.9532C0.0966625 15.0641 1.63694 20.9008 5.63875 19.8737C7.02458 19.5172 8.22193 17.9721 7.8216 16.1754C7.50552 14.7534 5.76983 13.4428 3.98252 13.9535L3.98255 13.9532ZM10.7234 0.206269C8.64235 1.29168 10.2962 4.04632 12.1455 3.12931C14.1037 2.15761 12.6569 -0.801101 10.7234 0.206269Z" fill="black" fill-opacity="0.7"/>
</svg>
