<svg width="19" height="22" viewBox="0 0 19 22" fill="none" xmlns="http://www.w3.org/2000/svg">
<path d="M8.56314 1.92505L4.04398 9.16672M3.49398 1.92505H15.594C16.6023 1.92505 17.4273 2.75005 17.4273 3.75838V5.77505C17.4273 6.50838 16.969 7.42505 16.5106 7.88338L12.569 11.3667C12.019 11.825 11.6523 12.7417 11.6523 13.475V17.4167C11.6523 17.9667 11.2856 18.7 10.8273 18.975L9.54398 19.8C8.35231 20.5334 6.70231 19.7084 6.70231 18.2417V13.3834C6.70231 12.7417 6.33564 11.9167 5.96898 11.4584L2.48564 7.79172C2.02731 7.33338 1.66064 6.50838 1.66064 5.95838V3.85005C1.66064 2.75005 2.48564 1.92505 3.49398 1.92505Z" stroke="black" stroke-width="2" stroke-miterlimit="10" stroke-linecap="round" stroke-linejoin="round"/>
</svg>
