<svg width="142" height="19" viewBox="0 0 142 19" fill="none" xmlns="http://www.w3.org/2000/svg">
<path d="M6.88 4C7.82667 4 8.66 4.19333 9.38 4.58C10.1 4.95333 10.6533 5.49333 11.04 6.2C11.44 6.89333 11.64 7.69333 11.64 8.6C11.64 9.49333 11.4333 10.28 11.02 10.96C10.6067 11.64 10.0267 12.1667 9.28 12.54C8.53333 12.9133 7.67333 13.1 6.7 13.1H4.58C4.51333 13.1 4.48 13.1333 4.48 13.2V17.7C4.48 17.7933 4.45333 17.8667 4.4 17.92C4.34667 17.9733 4.27333 18 4.18 18H1.02C0.926667 18 0.853333 17.9733 0.8 17.92C0.746667 17.8667 0.72 17.7933 0.72 17.7V4.3C0.72 4.20667 0.746667 4.13333 0.8 4.08C0.853333 4.02667 0.926667 4 1.02 4H6.88ZM6.26 10.1C6.75333 10.1 7.14667 9.97333 7.44 9.72C7.74667 9.45333 7.9 9.10667 7.9 8.68C7.9 8.24 7.74667 7.88667 7.44 7.62C7.14667 7.35333 6.75333 7.22 6.26 7.22H4.58C4.51333 7.22 4.48 7.25333 4.48 7.32V10C4.48 10.0667 4.51333 10.1 4.58 10.1H6.26ZM20.1322 18C19.9589 18 19.8455 17.9267 19.7922 17.78L17.5922 12.7C17.5655 12.6467 17.5255 12.62 17.4722 12.62H16.6322C16.5655 12.62 16.5322 12.6533 16.5322 12.72V17.7C16.5322 17.7933 16.5055 17.8667 16.4522 17.92C16.3989 17.9733 16.3255 18 16.2322 18H13.0722C12.9789 18 12.9055 17.9733 12.8522 17.92C12.7989 17.8667 12.7722 17.7933 12.7722 17.7V4.3C12.7722 4.20667 12.7989 4.13333 12.8522 4.08C12.9055 4.02667 12.9789 4 13.0722 4H19.1322C20.0389 4 20.8322 4.18667 21.5122 4.56C22.2055 4.93333 22.7389 5.46 23.1122 6.14C23.4989 6.80667 23.6922 7.58 23.6922 8.46C23.6922 9.34 23.4722 10.1133 23.0322 10.78C22.6055 11.4333 22.0122 11.9133 21.2522 12.22C21.1855 12.2467 21.1655 12.2933 21.1922 12.36L23.7322 17.64C23.7589 17.72 23.7722 17.7667 23.7722 17.78C23.7722 17.8467 23.7455 17.9 23.6922 17.94C23.6389 17.98 23.5722 18 23.4922 18H20.1322ZM16.6322 7.22C16.5655 7.22 16.5322 7.25333 16.5322 7.32V9.66C16.5322 9.72667 16.5655 9.76 16.6322 9.76H18.5122C18.9389 9.76 19.2855 9.64667 19.5522 9.42C19.8189 9.18 19.9522 8.87333 19.9522 8.5C19.9522 8.11333 19.8189 7.80667 19.5522 7.58C19.2855 7.34 18.9389 7.22 18.5122 7.22H16.6322ZM30.4969 18.24C29.3902 18.24 28.4102 18.02 27.5569 17.58C26.7169 17.1267 26.0635 16.5 25.5969 15.7C25.1302 14.8867 24.8969 13.9467 24.8969 12.88V9.12C24.8969 8.08 25.1302 7.16 25.5969 6.36C26.0635 5.56 26.7169 4.94 27.5569 4.5C28.4102 4.06 29.3902 3.84 30.4969 3.84C31.6169 3.84 32.5969 4.06 33.4369 4.5C34.2902 4.94 34.9502 5.56 35.4169 6.36C35.8835 7.16 36.1169 8.08 36.1169 9.12V12.88C36.1169 13.9467 35.8835 14.8867 35.4169 15.7C34.9502 16.5 34.2902 17.1267 33.4369 17.58C32.5969 18.02 31.6169 18.24 30.4969 18.24ZM30.4969 15.02C31.0569 15.02 31.5035 14.84 31.8369 14.48C32.1835 14.1067 32.3569 13.6133 32.3569 13V9.08C32.3569 8.46667 32.1835 7.98 31.8369 7.62C31.5035 7.24667 31.0569 7.06 30.4969 7.06C29.9502 7.06 29.5035 7.24667 29.1569 7.62C28.8235 7.98 28.6569 8.46667 28.6569 9.08V13C28.6569 13.6133 28.8235 14.1067 29.1569 14.48C29.5035 14.84 29.9502 15.02 30.4969 15.02ZM46.4388 4.2C46.5188 4.06667 46.6388 4 46.7988 4H49.9188C50.0121 4 50.0854 4.02667 50.1388 4.08C50.1921 4.13333 50.2188 4.20667 50.2188 4.3V17.7C50.2188 17.7933 50.1921 17.8667 50.1388 17.92C50.0854 17.9733 50.0121 18 49.9188 18H46.7588C46.6654 18 46.5921 17.9733 46.5388 17.92C46.4854 17.8667 46.4588 17.7933 46.4588 17.7V10.44C46.4588 10.3867 46.4454 10.36 46.4188 10.36C46.3921 10.3467 46.3654 10.36 46.3388 10.4L44.9788 12.62C44.8988 12.7533 44.7788 12.82 44.6188 12.82H43.0988C42.9388 12.82 42.8188 12.7533 42.7388 12.62L41.3788 10.4C41.3521 10.36 41.3254 10.3467 41.2988 10.36C41.2721 10.36 41.2588 10.3867 41.2588 10.44V17.7C41.2588 17.7933 41.2321 17.8667 41.1788 17.92C41.1254 17.9733 41.0521 18 40.9588 18H37.7988C37.7054 18 37.6321 17.9733 37.5788 17.92C37.5254 17.8667 37.4988 17.7933 37.4988 17.7V4.3C37.4988 4.20667 37.5254 4.13333 37.5788 4.08C37.6321 4.02667 37.7054 4 37.7988 4H40.9188C41.0788 4 41.1988 4.06667 41.2788 4.2L43.7988 8.26C43.8388 8.34 43.8788 8.34 43.9188 8.26L46.4388 4.2ZM57.1961 18.24C56.0894 18.24 55.1094 18.02 54.2561 17.58C53.4161 17.1267 52.7628 16.5 52.2961 15.7C51.8294 14.8867 51.5961 13.9467 51.5961 12.88V9.12C51.5961 8.08 51.8294 7.16 52.2961 6.36C52.7628 5.56 53.4161 4.94 54.2561 4.5C55.1094 4.06 56.0894 3.84 57.1961 3.84C58.3161 3.84 59.2961 4.06 60.1361 4.5C60.9894 4.94 61.6494 5.56 62.1161 6.36C62.5828 7.16 62.8161 8.08 62.8161 9.12V12.88C62.8161 13.9467 62.5828 14.8867 62.1161 15.7C61.6494 16.5 60.9894 17.1267 60.1361 17.58C59.2961 18.02 58.3161 18.24 57.1961 18.24ZM57.1961 15.02C57.7561 15.02 58.2028 14.84 58.5361 14.48C58.8828 14.1067 59.0561 13.6133 59.0561 13V9.08C59.0561 8.46667 58.8828 7.98 58.5361 7.62C58.2028 7.24667 57.7561 7.06 57.1961 7.06C56.6494 7.06 56.2028 7.24667 55.8561 7.62C55.5228 7.98 55.3561 8.46667 55.3561 9.08V13C55.3561 13.6133 55.5228 14.1067 55.8561 14.48C56.2028 14.84 56.6494 15.02 57.1961 15.02ZM69.538 18.16C68.4446 18.16 67.478 17.9467 66.638 17.52C65.8113 17.0933 65.1646 16.4933 64.698 15.72C64.2446 14.9333 64.018 14.0267 64.018 13V8.96C64.018 7.94667 64.2446 7.05333 64.698 6.28C65.1646 5.50667 65.8113 4.90667 66.638 4.48C67.478 4.05333 68.4446 3.84 69.538 3.84C70.6313 3.84 71.5913 4.04 72.418 4.44C73.258 4.84 73.9046 5.40667 74.358 6.14C74.8246 6.86 75.058 7.7 75.058 8.66C75.058 8.78 74.958 8.85333 74.758 8.88L71.598 9.08H71.538C71.378 9.08 71.298 9.00667 71.298 8.86C71.298 8.31333 71.138 7.88 70.818 7.56C70.498 7.22667 70.0713 7.06 69.538 7.06C69.0046 7.06 68.578 7.22667 68.258 7.56C67.938 7.88 67.778 8.31333 67.778 8.86V13.16C67.778 13.6933 67.938 14.1267 68.258 14.46C68.578 14.78 69.0046 14.94 69.538 14.94C70.0713 14.94 70.498 14.78 70.818 14.46C71.138 14.1267 71.298 13.6933 71.298 13.16C71.298 13.08 71.3246 13.02 71.378 12.98C71.4313 12.94 71.5046 12.9267 71.598 12.94L74.758 13.1C74.958 13.1133 75.058 13.18 75.058 13.3C75.058 14.26 74.8246 15.1067 74.358 15.84C73.9046 16.5733 73.258 17.1467 72.418 17.56C71.5913 17.96 70.6313 18.16 69.538 18.16ZM76.6855 18C76.5921 18 76.5188 17.9733 76.4655 17.92C76.4121 17.8667 76.3855 17.7933 76.3855 17.7V4.3C76.3855 4.20667 76.4121 4.13333 76.4655 4.08C76.5188 4.02667 76.5921 4 76.6855 4H79.8455C79.9388 4 80.0121 4.02667 80.0655 4.08C80.1188 4.13333 80.1455 4.20667 80.1455 4.3V17.7C80.1455 17.7933 80.1188 17.8667 80.0655 17.92C80.0121 17.9733 79.9388 18 79.8455 18H76.6855ZM87.118 18.24C86.0113 18.24 85.0313 18.02 84.178 17.58C83.338 17.1267 82.6846 16.5 82.218 15.7C81.7513 14.8867 81.518 13.9467 81.518 12.88V9.12C81.518 8.08 81.7513 7.16 82.218 6.36C82.6846 5.56 83.338 4.94 84.178 4.5C85.0313 4.06 86.0113 3.84 87.118 3.84C88.238 3.84 89.218 4.06 90.058 4.5C90.9113 4.94 91.5713 5.56 92.038 6.36C92.5046 7.16 92.738 8.08 92.738 9.12V12.88C92.738 13.9467 92.5046 14.8867 92.038 15.7C91.5713 16.5 90.9113 17.1267 90.058 17.58C89.218 18.02 88.238 18.24 87.118 18.24ZM87.118 15.02C87.678 15.02 88.1246 14.84 88.458 14.48C88.8046 14.1067 88.978 13.6133 88.978 13V9.08C88.978 8.46667 88.8046 7.98 88.458 7.62C88.1246 7.24667 87.678 7.06 87.118 7.06C86.5713 7.06 86.1246 7.24667 85.778 7.62C85.4446 7.98 85.278 8.46667 85.278 9.08V13C85.278 13.6133 85.4446 14.1067 85.778 14.48C86.1246 14.84 86.5713 15.02 87.118 15.02ZM85.738 2.82C85.6313 2.82 85.5513 2.78667 85.498 2.72C85.458 2.64 85.4646 2.55333 85.518 2.46L86.498 0.62C86.5646 0.473332 86.6846 0.399999 86.858 0.399999H89.558C89.718 0.399999 89.798 0.459999 89.798 0.579999C89.798 0.633332 89.778 0.693332 89.738 0.759999L88.338 2.64C88.258 2.76 88.138 2.82 87.978 2.82H85.738ZM101.96 4.3C101.96 4.20667 101.987 4.13333 102.04 4.08C102.093 4.02667 102.167 4 102.26 4H105.42C105.513 4 105.587 4.02667 105.64 4.08C105.693 4.13333 105.72 4.20667 105.72 4.3V17.7C105.72 17.7933 105.693 17.8667 105.64 17.92C105.587 17.9733 105.513 18 105.42 18H102.4C102.24 18 102.12 17.9333 102.04 17.8L97.9598 11C97.9332 10.96 97.9065 10.9467 97.8798 10.96C97.8532 10.96 97.8398 10.9867 97.8398 11.04L97.8798 17.7C97.8798 17.7933 97.8532 17.8667 97.7998 17.92C97.7465 17.9733 97.6732 18 97.5798 18H94.4198C94.3265 18 94.2532 17.9733 94.1998 17.92C94.1465 17.8667 94.1198 17.7933 94.1198 17.7V4.3C94.1198 4.20667 94.1465 4.13333 94.1998 4.08C94.2532 4.02667 94.3265 4 94.4198 4H97.4398C97.5998 4 97.7198 4.06667 97.7998 4.2L101.86 11C101.887 11.04 101.913 11.06 101.94 11.06C101.967 11.0467 101.98 11.0133 101.98 10.96L101.96 4.3ZM116.644 18C116.457 18 116.344 17.9133 116.304 17.74L115.864 16.18C115.837 16.1267 115.804 16.1 115.764 16.1H111.524C111.484 16.1 111.451 16.1267 111.424 16.18L110.984 17.74C110.944 17.9133 110.831 18 110.644 18H107.224C106.984 18 106.897 17.8867 106.964 17.66L111.184 4.24C111.237 4.08 111.351 4 111.524 4H115.764C115.937 4 116.051 4.08 116.104 4.24L120.324 17.66C120.337 17.6867 120.344 17.7267 120.344 17.78C120.344 17.9267 120.251 18 120.064 18H116.644ZM112.304 13.1C112.291 13.18 112.317 13.22 112.384 13.22H114.884C114.964 13.22 114.991 13.18 114.964 13.1L113.684 8.62C113.671 8.58 113.651 8.56 113.624 8.56C113.597 8.56 113.577 8.58 113.564 8.62L112.304 13.1ZM130.029 4C130.122 4 130.196 4.02667 130.249 4.08C130.302 4.13333 130.329 4.20667 130.329 4.3V6.94C130.329 7.03333 130.302 7.10667 130.249 7.16C130.196 7.21333 130.122 7.24 130.029 7.24H126.669C126.602 7.24 126.569 7.27333 126.569 7.34V17.7C126.569 17.7933 126.542 17.8667 126.489 17.92C126.436 17.9733 126.362 18 126.269 18H123.109C123.016 18 122.942 17.9733 122.889 17.92C122.836 17.8667 122.809 17.7933 122.809 17.7V7.34C122.809 7.27333 122.776 7.24 122.709 7.24H119.449C119.356 7.24 119.282 7.21333 119.229 7.16C119.176 7.10667 119.149 7.03333 119.149 6.94V4.3C119.149 4.20667 119.176 4.13333 119.229 4.08C119.282 4.02667 119.356 4 119.449 4H130.029ZM141.604 6.92C141.604 7.01333 141.577 7.08667 141.524 7.14C141.47 7.19333 141.397 7.22 141.304 7.22H135.324C135.257 7.22 135.224 7.25333 135.224 7.32V9.2C135.224 9.26667 135.257 9.3 135.324 9.3H139.024C139.117 9.3 139.19 9.32667 139.244 9.38C139.297 9.43333 139.324 9.50667 139.324 9.6V12.2C139.324 12.2933 139.297 12.3667 139.244 12.42C139.19 12.4733 139.117 12.5 139.024 12.5H135.324C135.257 12.5 135.224 12.5333 135.224 12.6V14.68C135.224 14.7467 135.257 14.78 135.324 14.78H141.304C141.397 14.78 141.47 14.8067 141.524 14.86C141.577 14.9133 141.604 14.9867 141.604 15.08V17.7C141.604 17.7933 141.577 17.8667 141.524 17.92C141.47 17.9733 141.397 18 141.304 18H131.764C131.67 18 131.597 17.9733 131.544 17.92C131.49 17.8667 131.464 17.7933 131.464 17.7V4.3C131.464 4.20667 131.49 4.13333 131.544 4.08C131.597 4.02667 131.67 4 131.764 4H141.304C141.397 4 141.47 4.02667 141.524 4.08C141.577 4.13333 141.604 4.20667 141.604 4.3V6.92Z" fill="black"/>
</svg>
