<svg width="30" height="30" viewBox="0 0 30 30" fill="none" xmlns="http://www.w3.org/2000/svg">
<path d="M25.4136 27.5C25.2212 27.4936 25.0386 27.4135 24.9036 27.2762C24.7687 27.1389 24.6917 26.955 24.6886 26.7625V24.1625C24.6902 23.57 24.5745 22.9831 24.3482 22.4356C24.1219 21.888 23.7893 21.3907 23.3698 20.9724C22.9503 20.554 22.4521 20.2229 21.9039 19.9981C21.3558 19.7732 20.7685 19.6592 20.1761 19.6625H9.72606C9.13465 19.6608 8.54875 19.7761 8.00204 20.0017C7.45533 20.2272 6.9586 20.5586 6.5404 20.9768C6.12221 21.395 5.79081 21.8918 5.56524 22.4385C5.33968 22.9852 5.22441 23.5711 5.22606 24.1625V26.7625C5.22285 26.9571 5.14411 27.1428 5.0065 27.2804C4.86888 27.418 4.68316 27.4968 4.48856 27.5C4.39029 27.5054 4.29198 27.4901 4.20004 27.4549C4.10811 27.4198 4.02462 27.3656 3.95503 27.296C3.88543 27.2264 3.83129 27.1429 3.79615 27.051C3.761 26.9591 3.74564 26.8608 3.75106 26.7625V24.1625C3.7609 22.5809 4.39356 21.0668 5.51197 19.9484C6.63037 18.83 8.14443 18.1973 9.72606 18.1875H20.1761C20.9677 18.1792 21.7532 18.3274 22.4875 18.6236C23.2217 18.9197 23.8903 19.3579 24.4547 19.913C25.0192 20.4682 25.4684 21.1294 25.7767 21.8586C26.085 22.5879 26.2462 23.3708 26.2511 24.1625V26.7625C26.2447 26.866 26.218 26.9672 26.1724 27.0603C26.1268 27.1535 26.0633 27.2367 25.9855 27.3052C25.9077 27.3737 25.8171 27.4262 25.719 27.4596C25.6208 27.493 25.517 27.5068 25.4136 27.5Z" fill="black"/>
<path d="M15.0011 14.4125C14.1959 14.4494 13.3917 14.3227 12.6369 14.04C11.8821 13.7573 11.1924 13.3245 10.6096 12.7678C10.0268 12.2111 9.56292 11.542 9.24597 10.8009C8.92903 10.0598 8.76562 9.26223 8.76562 8.45624C8.76562 7.65026 8.92903 6.85264 9.24597 6.11158C9.56292 5.37053 10.0268 4.70143 10.6096 4.1447C11.1924 3.58798 11.8821 3.1552 12.6369 2.87251C13.3917 2.58983 14.1959 2.4631 15.0011 2.49999C15.8062 2.4631 16.6105 2.58983 17.3652 2.87251C18.12 3.1552 18.8097 3.58798 19.3925 4.1447C19.9753 4.70143 20.4392 5.37053 20.7561 6.11158C21.0731 6.85264 21.2365 7.65026 21.2365 8.45624C21.2365 9.26223 21.0731 10.0598 20.7561 10.8009C20.4392 11.542 19.9753 12.2111 19.3925 12.7678C18.8097 13.3245 18.12 13.7573 17.3652 14.04C16.6105 14.3227 15.8062 14.4494 15.0011 14.4125ZM15.0011 3.97499C14.108 3.975 13.2351 4.23997 12.4928 4.73636C11.7504 5.23276 11.172 5.93825 10.8309 6.76354C10.4897 7.58881 10.4011 8.49677 10.5762 9.37245C10.7513 10.2481 11.1823 11.0522 11.8147 11.6827C12.447 12.3133 13.2522 12.7421 14.1284 12.9148C15.0046 13.0875 15.9123 12.9964 16.7366 12.6529C17.5609 12.3094 18.2648 11.7291 18.7591 10.9854C19.2535 10.2417 19.516 9.36801 19.5136 8.47499C19.5152 7.88253 19.3995 7.2956 19.1732 6.74806C18.9469 6.20053 18.6143 5.70324 18.1948 5.28488C17.7753 4.86653 17.2771 4.53538 16.7289 4.31056C16.1808 4.08574 15.5935 3.97169 15.0011 3.97499Z" fill="black"/>
</svg>
