<svg
      width="22"
      height="22"
      viewBox="0 0 22 22"
      fill="none"
      xmlns="http://www.w3.org/2000/svg"
    >
      <path
        d="M0.100001 10.6C9.79135e-07 10.8 9.52908e-07 11.1 0.100001 11.4C0.200002 11.5 0.2 11.6 0.3 11.7L10.3 21.7C10.7 22.1 11.3 22.1 11.7 21.7C12.1 21.3 12.1 20.7 11.7 20.3L3.4 12L21 12C21.6 12 22 11.6 22 11C22 10.4 21.6 10 21 10L3.4 10L11.7 1.7C12.1 1.3 12.1 0.699998 11.7 0.299998C11.5 0.0999976 11.2 -9.44166e-07 11 -9.61651e-07C10.8 -9.79135e-07 10.5 0.0999975 10.3 0.299998L0.3 10.3C0.2 10.4 0.100001 10.5 0.100001 10.6Z"
        fill="#FFFF00"
      />
    </svg>