<svg width="24" height="25" viewBox="0 0 24 25" fill="none" xmlns="http://www.w3.org/2000/svg">
<path d="M12.0623 0.5C9.31076 0.499784 6.64358 1.45005 4.51235 3.19035C2.38111 4.93064 0.916554 7.3539 0.366582 10.0499C-0.183218 12.7461 0.215277 15.5492 1.49473 17.985L0.0505631 22.9081C-0.0338527 23.1947 -0.0119924 23.5021 0.111822 23.7739C0.235852 24.0456 0.453608 24.2635 0.725241 24.3878C0.996891 24.5118 1.30425 24.5339 1.59084 24.4497L6.51372 23.0055C8.65836 24.1309 11.0946 24.5772 13.4991 24.2852C15.9032 23.993 18.1618 22.9765 19.9746 21.3704C21.7874 19.7643 23.0688 17.6448 23.6485 15.2933C24.2284 12.9417 24.079 10.4693 23.2204 8.20488C22.3619 5.94011 20.8348 3.99024 18.8416 2.61429C16.8487 1.23805 14.4841 0.500787 12.0624 0.500177L12.0623 0.5ZM12.0623 21.8904C10.3848 21.8907 8.73757 21.4441 7.29013 20.5964C6.99489 20.4233 6.64097 20.3796 6.3126 20.4761L3.07206 21.4268L4.0225 18.1858V18.186C4.11882 17.8576 4.07531 17.5039 3.90236 17.2087C2.85102 15.4104 2.42289 13.3153 2.685 11.2485C2.94691 9.18197 3.88419 7.25986 5.35107 5.78078C6.81802 4.30154 8.73236 3.34844 10.7967 3.06944C12.861 2.79042 14.9598 3.20104 16.7663 4.23765C18.5732 5.27426 19.9871 6.87862 20.7885 8.80139C21.5896 10.7242 21.7333 12.858 21.1969 14.8708C20.6608 16.8838 19.4746 18.6631 17.8228 19.9324C16.1712 21.2019 14.1465 21.89 12.0632 21.8902L12.0623 21.8904Z" fill="white"/>
<path d="M15.927 11.2306H13.33V8.63005C13.33 8.18675 13.0934 7.77697 12.7094 7.55515C12.3252 7.3335 11.852 7.3335 11.4681 7.55515C11.0841 7.77702 10.8475 8.18675 10.8475 8.63005V11.2306H8.247C7.80369 11.2306 7.39392 11.4672 7.1721 11.8511C6.95045 12.2351 6.95045 12.7083 7.1721 13.0925C7.39397 13.4765 7.80369 13.7131 8.247 13.7131H10.8475V16.3117C10.8475 16.755 11.0841 17.1649 11.4681 17.3865C11.8521 17.6082 12.3253 17.6082 12.7094 17.3865C13.0934 17.1649 13.33 16.755 13.33 16.3117V13.7131H15.9286C16.3719 13.7131 16.7818 13.4765 17.0035 13.0925C17.2251 12.7083 17.2251 12.2351 17.0035 11.8511C16.7818 11.4672 16.3719 11.2306 15.9286 11.2306H15.927Z" fill="white"/>
</svg>
