<svg width="24" height="25" viewBox="0 0 24 25" fill="none" xmlns="http://www.w3.org/2000/svg">
<path d="M20.3309 22.5001C20.1769 22.495 20.0309 22.4308 19.9229 22.321C19.8149 22.2112 19.7533 22.0641 19.7509 21.9101V19.8301C19.7522 19.3561 19.6596 18.8865 19.4786 18.4485C19.2975 18.0105 19.0315 17.6127 18.6959 17.278C18.3602 16.9433 17.9617 16.6784 17.5231 16.4985C17.0846 16.3187 16.6148 16.2274 16.1409 16.2301H7.78085C7.30772 16.2287 6.839 16.321 6.40163 16.5014C5.96426 16.6819 5.56688 16.947 5.23232 17.2815C4.89777 17.6161 4.63265 18.0135 4.4522 18.4508C4.27175 18.8882 4.17953 19.3569 4.18085 19.8301V21.9101C4.17828 22.0657 4.11529 22.2143 4.0052 22.3244C3.8951 22.4345 3.74652 22.4975 3.59085 22.5001C3.51223 22.5044 3.43358 22.4921 3.36004 22.464C3.28649 22.4359 3.2197 22.3926 3.16402 22.3369C3.10834 22.2812 3.06503 22.2144 3.03692 22.1409C3.0088 22.0673 2.99651 21.9887 3.00085 21.9101V19.8301C3.00872 18.5648 3.51485 17.3535 4.40957 16.4588C5.3043 15.5641 6.51554 15.0579 7.78085 15.0501H16.1409C16.7742 15.0435 17.4026 15.162 17.99 15.3989C18.5774 15.6358 19.1122 15.9864 19.5638 16.4305C20.0153 16.8746 20.3747 17.4036 20.6214 17.987C20.868 18.5704 20.9969 19.1967 21.0009 19.8301V21.9101C20.9958 21.9929 20.9744 22.0738 20.9379 22.1483C20.9015 22.2228 20.8506 22.2894 20.7884 22.3442C20.7261 22.399 20.6537 22.441 20.5752 22.4678C20.4966 22.4945 20.4136 22.5055 20.3309 22.5001Z" fill="white" stroke="white" stroke-width="1.5"/>
<path d="M12.0008 3.93012L12.0022 3.93011C12.4432 3.92766 12.8802 4.01254 13.2882 4.17987C13.6962 4.34721 14.067 4.59367 14.3793 4.90505C14.6915 5.21643 14.939 5.58656 15.1075 5.99408C15.2759 6.4016 15.362 6.83845 15.3608 7.27942L15.3608 7.28081C15.3626 7.94575 15.1671 8.59628 14.7991 9.15006C14.431 9.70383 13.9069 10.1359 13.2931 10.3917C12.6793 10.6474 12.0034 10.7153 11.351 10.5867C10.6986 10.4581 10.0991 10.1388 9.62823 9.66929C9.15739 9.19976 8.83646 8.60108 8.70606 7.94905C8.57565 7.29702 8.64165 6.62096 8.89568 6.00646C9.14972 5.39196 9.58037 4.86665 10.1331 4.49703C10.6859 4.12742 11.3359 3.93012 12.0008 3.93012ZM10.0218 11.9662C10.6537 12.2029 11.3268 12.3097 12.0008 12.2804C12.6748 12.3097 13.3479 12.2029 13.9798 11.9662C14.6153 11.7282 15.1959 11.3638 15.6866 10.8951C16.1773 10.4264 16.5679 9.86307 16.8347 9.23915C17.1016 8.61524 17.2391 7.9437 17.2391 7.26512C17.2391 6.58653 17.1016 5.915 16.8347 5.29108C16.5679 4.66717 16.1773 4.10383 15.6866 3.63511C15.1959 3.16639 14.6153 2.80202 13.9798 2.56401C13.3479 2.32735 12.6748 2.22052 12.0008 2.24987C11.3267 2.22052 10.6537 2.32735 10.0218 2.56401C9.38629 2.80202 8.80566 3.16639 8.31497 3.63511C7.82428 4.10383 7.43371 4.66717 7.16687 5.29108C6.90003 5.915 6.76245 6.58653 6.76245 7.26512C6.76245 7.9437 6.90003 8.61524 7.16687 9.23915C7.43371 9.86307 7.82428 10.4264 8.31497 10.8951C8.80566 11.3638 9.38629 11.7282 10.0218 11.9662Z" fill="white" stroke="white" stroke-width="0.5"/>
</svg>
