<svg width="24" height="24" viewBox="0 0 24 24" fill="none" xmlns="http://www.w3.org/2000/svg">
<path d="M12.0623 3.6985e-08C9.31076 -0.000216461 6.64358 0.950052 4.51235 2.69035C2.38111 4.43064 0.916554 6.8539 0.366582 9.5499C-0.183218 12.2461 0.215277 15.0492 1.49473 17.485L0.0505631 22.4081C-0.0338527 22.6947 -0.0119924 23.0021 0.111822 23.2739C0.235852 23.5456 0.453608 23.7635 0.725241 23.8878C0.996891 24.0118 1.30425 24.0339 1.59084 23.9497L6.51372 22.5055C8.65836 23.6309 11.0946 24.0772 13.4991 23.7852C15.9032 23.493 18.1618 22.4765 19.9746 20.8704C21.7874 19.2643 23.0688 17.1448 23.6485 14.7933C24.2284 12.4417 24.079 9.96933 23.2204 7.70488C22.3619 5.44011 20.8348 3.49024 18.8416 2.11429C16.8487 0.738054 14.4841 0.000786717 12.0624 0.000177176L12.0623 3.6985e-08ZM12.0623 21.3904C10.3848 21.3907 8.73757 20.9441 7.29013 20.0964C6.99489 19.9233 6.64097 19.8796 6.3126 19.9761L3.07206 20.9268L4.0225 17.6858V17.686C4.11882 17.3576 4.07531 17.0039 3.90236 16.7087C2.85102 14.9104 2.42289 12.8153 2.685 10.7485C2.94691 8.68197 3.88419 6.75986 5.35107 5.28078C6.81802 3.80154 8.73236 2.84844 10.7967 2.56944C12.861 2.29042 14.9598 2.70104 16.7663 3.73765C18.5732 4.77426 19.9871 6.37862 20.7885 8.30139C21.5896 10.2242 21.7333 12.358 21.1969 14.3708C20.6608 16.3838 19.4746 18.1631 17.8228 19.4324C16.1712 20.7019 14.1465 21.39 12.0632 21.3902L12.0623 21.3904Z" fill="black"/>
<path d="M15.9275 10.7306H13.3305V8.13005C13.3305 7.68675 13.0939 7.27697 12.7099 7.05515C12.3257 6.8335 11.8525 6.8335 11.4686 7.05515C11.0846 7.27702 10.848 7.68675 10.848 8.13005V10.7306H8.24748C7.80418 10.7306 7.3944 10.9672 7.17259 11.3511C6.95093 11.7351 6.95093 12.2083 7.17259 12.5925C7.39445 12.9765 7.80418 13.2131 8.24748 13.2131H10.848V15.8117C10.848 16.255 11.0846 16.6649 11.4686 16.8865C11.8526 17.1082 12.3258 17.1082 12.7099 16.8865C13.0939 16.6649 13.3305 16.255 13.3305 15.8117V13.2131H15.9291C16.3724 13.2131 16.7823 12.9765 17.004 12.5925C17.2256 12.2083 17.2256 11.7351 17.004 11.3511C16.7823 10.9672 16.3724 10.7306 15.9291 10.7306H15.9275Z" fill="black"/>
</svg>
