<svg width="28" height="28" viewBox="0 0 28 28" fill="none" xmlns="http://www.w3.org/2000/svg">
<path fill-rule="evenodd" clip-rule="evenodd" d="M16.4339 27.5936C24.0542 26.2558 29.1175 18.991 27.7882 11.3198C26.679 4.97801 21.0992 0.0162964 14.3425 0.0162964C13.2841 0.0162964 12.1918 0.134836 11.0827 0.397315C2.10755 2.50562 -2.38 12.3528 1.82814 20.4897C1.93821 20.7268 1.96361 21.0485 1.89587 21.3025C1.57296 22.5383 1.22273 23.7695 0.871886 25.0028C0.744355 25.4511 0.616744 25.8997 0.490337 26.3489C0.395237 26.7174 0.295965 27.0859 0.189592 27.4808C0.144432 27.6485 0.0979924 27.8208 0.0500488 28C0.43154 27.9228 1.24703 27.709 2.43719 27.3969C3.59798 27.0924 5.1152 26.6945 6.93379 26.2388C7.01846 26.2134 7.1116 26.205 7.2132 26.205C7.40794 26.205 7.61962 26.2473 7.78896 26.332C9.77873 27.3057 11.8532 27.8053 14.0038 27.8053C14.7997 27.8053 15.6125 27.7375 16.4339 27.5936ZM25.6122 12.1835C26.5181 18.4661 22.1661 24.3592 15.8581 25.3667L15.8666 25.3752C15.2315 25.4768 14.5965 25.5276 13.9784 25.5276C11.9378 25.5276 10.0158 24.9773 8.18691 23.9189C7.97524 23.7919 7.78049 23.7326 7.56882 23.7326C7.46721 23.7326 7.35714 23.7411 7.2386 23.7749C6.19423 24.0674 5.14413 24.3369 4.03652 24.6212C3.79717 24.6826 3.55513 24.7447 3.30988 24.8079C3.42888 24.3977 3.53282 24.0013 3.63413 23.615C3.80674 22.9569 3.9717 22.3279 4.19045 21.709C4.4868 20.8961 4.37673 20.2696 3.95337 19.5075C0.126253 12.6153 4.33439 3.92809 12.1326 2.49715C12.8438 2.36168 13.555 2.30241 14.2493 2.30241C19.8715 2.30241 24.7655 6.39201 25.6122 12.1835ZM10.1434 7.5722C9.90588 7.53334 9.65769 7.49274 9.42304 7.49274V7.50121C9.07589 7.50121 8.73721 7.58588 8.44086 7.85682C6.89138 9.29623 6.72204 11.3707 7.75503 13.1911C10.6762 18.3306 14.9774 20.4728 17.6869 20.5659H17.8901C19.2195 20.5659 21.1754 19.6853 21.0991 17.4416C21.0919 17.1665 20.9299 17.0894 19.1366 16.2367C18.8325 16.0921 18.4815 15.9252 18.0764 15.7312C17.9579 15.6719 17.8647 15.6465 17.7716 15.6465C17.502 15.6465 17.286 15.919 16.8101 16.5191C16.6581 16.7107 16.4796 16.9358 16.2644 17.196C16.129 17.3654 15.9766 17.45 15.7988 17.45C15.7141 17.45 15.6294 17.4331 15.5363 17.3992C13.4449 16.5779 11.87 15.1893 10.7439 13.2588C10.5746 12.9625 10.6254 12.7254 10.8455 12.4714C11.5567 11.667 11.8954 11.2013 11.7092 10.7187C11.3789 9.80426 10.9979 8.90675 10.6169 8.00925L10.6169 8.00923C10.5322 7.83989 10.3883 7.60281 10.2274 7.58588C10.1996 7.58139 10.1716 7.5768 10.1434 7.5722Z" fill="black"/>
</svg>
