<svg width="170" height="23" viewBox="0 0 170 23" fill="none" xmlns="http://www.w3.org/2000/svg">
<path d="M8.256 5.2C9.392 5.2 10.392 5.432 11.256 5.896C12.12 6.344 12.784 6.992 13.248 7.84C13.728 8.672 13.968 9.632 13.968 10.72C13.968 11.792 13.72 12.736 13.224 13.552C12.728 14.368 12.032 15 11.136 15.448C10.24 15.896 9.208 16.12 8.04 16.12H5.496C5.416 16.12 5.376 16.16 5.376 16.24V21.64C5.376 21.752 5.344 21.84 5.28 21.904C5.216 21.968 5.128 22 5.016 22H1.224C1.112 22 1.024 21.968 0.96 21.904C0.896 21.84 0.864 21.752 0.864 21.64V5.56C0.864 5.448 0.896 5.36 0.96 5.296C1.024 5.232 1.112 5.2 1.224 5.2H8.256ZM7.512 12.52C8.104 12.52 8.576 12.368 8.928 12.064C9.296 11.744 9.48 11.328 9.48 10.816C9.48 10.288 9.296 9.864 8.928 9.544C8.576 9.224 8.104 9.064 7.512 9.064H5.496C5.416 9.064 5.376 9.104 5.376 9.184V12.4C5.376 12.48 5.416 12.52 5.496 12.52H7.512ZM24.1586 22C23.9506 22 23.8146 21.912 23.7506 21.736L21.1106 15.64C21.0786 15.576 21.0306 15.544 20.9666 15.544H19.9586C19.8786 15.544 19.8386 15.584 19.8386 15.664V21.64C19.8386 21.752 19.8066 21.84 19.7426 21.904C19.6786 21.968 19.5906 22 19.4786 22H15.6866C15.5746 22 15.4866 21.968 15.4226 21.904C15.3586 21.84 15.3266 21.752 15.3266 21.64V5.56C15.3266 5.448 15.3586 5.36 15.4226 5.296C15.4866 5.232 15.5746 5.2 15.6866 5.2H22.9586C24.0466 5.2 24.9986 5.424 25.8146 5.872C26.6466 6.32 27.2866 6.952 27.7346 7.768C28.1986 8.568 28.4306 9.496 28.4306 10.552C28.4306 11.608 28.1666 12.536 27.6386 13.336C27.1266 14.12 26.4146 14.696 25.5026 15.064C25.4226 15.096 25.3986 15.152 25.4306 15.232L28.4786 21.568C28.5106 21.664 28.5266 21.72 28.5266 21.736C28.5266 21.816 28.4946 21.88 28.4306 21.928C28.3666 21.976 28.2866 22 28.1906 22H24.1586ZM19.9586 9.064C19.8786 9.064 19.8386 9.104 19.8386 9.184V11.992C19.8386 12.072 19.8786 12.112 19.9586 12.112H22.2146C22.7266 12.112 23.1426 11.976 23.4626 11.704C23.7826 11.416 23.9426 11.048 23.9426 10.6C23.9426 10.136 23.7826 9.768 23.4626 9.496C23.1426 9.208 22.7266 9.064 22.2146 9.064H19.9586ZM36.5963 22.288C35.2683 22.288 34.0923 22.024 33.0683 21.496C32.0603 20.952 31.2763 20.2 30.7163 19.24C30.1563 18.264 29.8763 17.136 29.8763 15.856V11.344C29.8763 10.096 30.1563 8.992 30.7163 8.032C31.2763 7.072 32.0603 6.328 33.0683 5.8C34.0923 5.272 35.2683 5.008 36.5963 5.008C37.9403 5.008 39.1163 5.272 40.1243 5.8C41.1483 6.328 41.9403 7.072 42.5003 8.032C43.0603 8.992 43.3403 10.096 43.3403 11.344V15.856C43.3403 17.136 43.0603 18.264 42.5003 19.24C41.9403 20.2 41.1483 20.952 40.1243 21.496C39.1163 22.024 37.9403 22.288 36.5963 22.288ZM36.5963 18.424C37.2683 18.424 37.8043 18.208 38.2043 17.776C38.6203 17.328 38.8283 16.736 38.8283 16V11.296C38.8283 10.56 38.6203 9.976 38.2043 9.544C37.8043 9.096 37.2683 8.872 36.5963 8.872C35.9403 8.872 35.4043 9.096 34.9883 9.544C34.5883 9.976 34.3883 10.56 34.3883 11.296V16C34.3883 16.736 34.5883 17.328 34.9883 17.776C35.4043 18.208 35.9403 18.424 36.5963 18.424ZM55.7265 5.44C55.8225 5.28 55.9665 5.2 56.1585 5.2H59.9025C60.0145 5.2 60.1025 5.232 60.1665 5.296C60.2305 5.36 60.2625 5.448 60.2625 5.56V21.64C60.2625 21.752 60.2305 21.84 60.1665 21.904C60.1025 21.968 60.0145 22 59.9025 22H56.1105C55.9985 22 55.9105 21.968 55.8465 21.904C55.7825 21.84 55.7505 21.752 55.7505 21.64V12.928C55.7505 12.864 55.7345 12.832 55.7025 12.832C55.6705 12.816 55.6385 12.832 55.6065 12.88L53.9745 15.544C53.8785 15.704 53.7345 15.784 53.5425 15.784H51.7185C51.5265 15.784 51.3825 15.704 51.2865 15.544L49.6545 12.88C49.6225 12.832 49.5905 12.816 49.5585 12.832C49.5265 12.832 49.5105 12.864 49.5105 12.928V21.64C49.5105 21.752 49.4785 21.84 49.4145 21.904C49.3505 21.968 49.2625 22 49.1505 22H45.3585C45.2465 22 45.1585 21.968 45.0945 21.904C45.0305 21.84 44.9985 21.752 44.9985 21.64V5.56C44.9985 5.448 45.0305 5.36 45.0945 5.296C45.1585 5.232 45.2465 5.2 45.3585 5.2H49.1025C49.2945 5.2 49.4385 5.28 49.5345 5.44L52.5585 10.312C52.6065 10.408 52.6545 10.408 52.7025 10.312L55.7265 5.44ZM68.6353 22.288C67.3073 22.288 66.1313 22.024 65.1073 21.496C64.0993 20.952 63.3153 20.2 62.7553 19.24C62.1953 18.264 61.9153 17.136 61.9153 15.856V11.344C61.9153 10.096 62.1953 8.992 62.7553 8.032C63.3153 7.072 64.0993 6.328 65.1073 5.8C66.1313 5.272 67.3073 5.008 68.6353 5.008C69.9793 5.008 71.1553 5.272 72.1633 5.8C73.1873 6.328 73.9793 7.072 74.5393 8.032C75.0993 8.992 75.3793 10.096 75.3793 11.344V15.856C75.3793 17.136 75.0993 18.264 74.5393 19.24C73.9793 20.2 73.1873 20.952 72.1633 21.496C71.1553 22.024 69.9793 22.288 68.6353 22.288ZM68.6353 18.424C69.3073 18.424 69.8433 18.208 70.2433 17.776C70.6593 17.328 70.8673 16.736 70.8673 16V11.296C70.8673 10.56 70.6593 9.976 70.2433 9.544C69.8433 9.096 69.3073 8.872 68.6353 8.872C67.9793 8.872 67.4433 9.096 67.0273 9.544C66.6273 9.976 66.4273 10.56 66.4273 11.296V16C66.4273 16.736 66.6273 17.328 67.0273 17.776C67.4433 18.208 67.9793 18.424 68.6353 18.424ZM83.4456 22.192C82.1336 22.192 80.9736 21.936 79.9656 21.424C78.9736 20.912 78.1976 20.192 77.6376 19.264C77.0936 18.32 76.8216 17.232 76.8216 16V11.152C76.8216 9.936 77.0936 8.864 77.6376 7.936C78.1976 7.008 78.9736 6.288 79.9656 5.776C80.9736 5.264 82.1336 5.008 83.4456 5.008C84.7576 5.008 85.9096 5.248 86.9016 5.728C87.9096 6.208 88.6856 6.888 89.2296 7.768C89.7896 8.632 90.0696 9.64 90.0696 10.792C90.0696 10.936 89.9496 11.024 89.7096 11.056L85.9176 11.296H85.8456C85.6536 11.296 85.5576 11.208 85.5576 11.032C85.5576 10.376 85.3656 9.856 84.9816 9.472C84.5976 9.072 84.0856 8.872 83.4456 8.872C82.8056 8.872 82.2936 9.072 81.9096 9.472C81.5256 9.856 81.3336 10.376 81.3336 11.032V16.192C81.3336 16.832 81.5256 17.352 81.9096 17.752C82.2936 18.136 82.8056 18.328 83.4456 18.328C84.0856 18.328 84.5976 18.136 84.9816 17.752C85.3656 17.352 85.5576 16.832 85.5576 16.192C85.5576 16.096 85.5896 16.024 85.6536 15.976C85.7176 15.928 85.8056 15.912 85.9176 15.928L89.7096 16.12C89.9496 16.136 90.0696 16.216 90.0696 16.36C90.0696 17.512 89.7896 18.528 89.2296 19.408C88.6856 20.288 87.9096 20.976 86.9016 21.472C85.9096 21.952 84.7576 22.192 83.4456 22.192ZM92.0226 22C91.9106 22 91.8226 21.968 91.7586 21.904C91.6946 21.84 91.6626 21.752 91.6626 21.64V5.56C91.6626 5.448 91.6946 5.36 91.7586 5.296C91.8226 5.232 91.9106 5.2 92.0226 5.2H95.8146C95.9266 5.2 96.0146 5.232 96.0786 5.296C96.1426 5.36 96.1746 5.448 96.1746 5.56V21.64C96.1746 21.752 96.1426 21.84 96.0786 21.904C96.0146 21.968 95.9266 22 95.8146 22H92.0226ZM104.542 22.288C103.214 22.288 102.038 22.024 101.014 21.496C100.006 20.952 99.2216 20.2 98.6616 19.24C98.1016 18.264 97.8216 17.136 97.8216 15.856V11.344C97.8216 10.096 98.1016 8.992 98.6616 8.032C99.2216 7.072 100.006 6.328 101.014 5.8C102.038 5.272 103.214 5.008 104.542 5.008C105.886 5.008 107.062 5.272 108.07 5.8C109.094 6.328 109.886 7.072 110.446 8.032C111.006 8.992 111.286 10.096 111.286 11.344V15.856C111.286 17.136 111.006 18.264 110.446 19.24C109.886 20.2 109.094 20.952 108.07 21.496C107.062 22.024 105.886 22.288 104.542 22.288ZM104.542 18.424C105.214 18.424 105.75 18.208 106.15 17.776C106.566 17.328 106.774 16.736 106.774 16V11.296C106.774 10.56 106.566 9.976 106.15 9.544C105.75 9.096 105.214 8.872 104.542 8.872C103.886 8.872 103.35 9.096 102.934 9.544C102.534 9.976 102.334 10.56 102.334 11.296V16C102.334 16.736 102.534 17.328 102.934 17.776C103.35 18.208 103.886 18.424 104.542 18.424ZM102.886 3.784C102.758 3.784 102.662 3.744 102.598 3.664C102.55 3.568 102.558 3.464 102.622 3.352L103.798 1.144C103.878 0.967999 104.022 0.879999 104.23 0.879999H107.47C107.662 0.879999 107.758 0.951999 107.758 1.096C107.758 1.16 107.734 1.232 107.686 1.312L106.006 3.568C105.91 3.712 105.766 3.784 105.574 3.784H102.886ZM122.352 5.56C122.352 5.448 122.384 5.36 122.448 5.296C122.512 5.232 122.6 5.2 122.712 5.2H126.504C126.616 5.2 126.704 5.232 126.768 5.296C126.832 5.36 126.864 5.448 126.864 5.56V21.64C126.864 21.752 126.832 21.84 126.768 21.904C126.704 21.968 126.616 22 126.504 22H122.88C122.688 22 122.544 21.92 122.448 21.76L117.552 13.6C117.52 13.552 117.488 13.536 117.456 13.552C117.424 13.552 117.408 13.584 117.408 13.648L117.456 21.64C117.456 21.752 117.424 21.84 117.36 21.904C117.296 21.968 117.208 22 117.096 22H113.304C113.192 22 113.104 21.968 113.04 21.904C112.976 21.84 112.944 21.752 112.944 21.64V5.56C112.944 5.448 112.976 5.36 113.04 5.296C113.104 5.232 113.192 5.2 113.304 5.2H116.928C117.12 5.2 117.264 5.28 117.36 5.44L122.232 13.6C122.264 13.648 122.296 13.672 122.328 13.672C122.36 13.656 122.376 13.616 122.376 13.552L122.352 5.56ZM139.973 22C139.749 22 139.613 21.896 139.565 21.688L139.037 19.816C139.005 19.752 138.965 19.72 138.917 19.72H133.829C133.781 19.72 133.741 19.752 133.709 19.816L133.181 21.688C133.133 21.896 132.997 22 132.773 22H128.669C128.381 22 128.277 21.864 128.357 21.592L133.421 5.488C133.485 5.296 133.621 5.2 133.829 5.2H138.917C139.125 5.2 139.261 5.296 139.325 5.488L144.389 21.592C144.405 21.624 144.413 21.672 144.413 21.736C144.413 21.912 144.301 22 144.077 22H139.973ZM134.765 16.12C134.749 16.216 134.781 16.264 134.861 16.264H137.861C137.957 16.264 137.989 16.216 137.957 16.12L136.421 10.744C136.405 10.696 136.381 10.672 136.349 10.672C136.317 10.672 136.293 10.696 136.277 10.744L134.765 16.12ZM156.035 5.2C156.147 5.2 156.235 5.232 156.299 5.296C156.363 5.36 156.395 5.448 156.395 5.56V8.728C156.395 8.84 156.363 8.928 156.299 8.992C156.235 9.056 156.147 9.088 156.035 9.088H152.003C151.923 9.088 151.883 9.128 151.883 9.208V21.64C151.883 21.752 151.851 21.84 151.787 21.904C151.723 21.968 151.635 22 151.523 22H147.731C147.619 22 147.531 21.968 147.467 21.904C147.403 21.84 147.371 21.752 147.371 21.64V9.208C147.371 9.128 147.331 9.088 147.251 9.088H143.339C143.227 9.088 143.139 9.056 143.075 8.992C143.011 8.928 142.979 8.84 142.979 8.728V5.56C142.979 5.448 143.011 5.36 143.075 5.296C143.139 5.232 143.227 5.2 143.339 5.2H156.035ZM169.924 8.704C169.924 8.816 169.892 8.904 169.828 8.968C169.764 9.032 169.676 9.064 169.564 9.064H162.388C162.308 9.064 162.268 9.104 162.268 9.184V11.44C162.268 11.52 162.308 11.56 162.388 11.56H166.828C166.94 11.56 167.028 11.592 167.092 11.656C167.156 11.72 167.188 11.808 167.188 11.92V15.04C167.188 15.152 167.156 15.24 167.092 15.304C167.028 15.368 166.94 15.4 166.828 15.4H162.388C162.308 15.4 162.268 15.44 162.268 15.52V18.016C162.268 18.096 162.308 18.136 162.388 18.136H169.564C169.676 18.136 169.764 18.168 169.828 18.232C169.892 18.296 169.924 18.384 169.924 18.496V21.64C169.924 21.752 169.892 21.84 169.828 21.904C169.764 21.968 169.676 22 169.564 22H158.116C158.004 22 157.916 21.968 157.852 21.904C157.788 21.84 157.756 21.752 157.756 21.64V5.56C157.756 5.448 157.788 5.36 157.852 5.296C157.916 5.232 158.004 5.2 158.116 5.2H169.564C169.676 5.2 169.764 5.232 169.828 5.296C169.892 5.36 169.924 5.448 169.924 5.56V8.704Z" fill="#FFFF00"/>
</svg>
