<svg width="48" height="48" viewBox="0 0 48 48" fill="none" xmlns="http://www.w3.org/2000/svg">
<rect width="48" height="48" rx="10" fill="black"/>
<path d="M22.9299 14.1001L17.9999 22.0001M17.3999 14.1001H30.5999C31.6999 14.1001 32.5999 15.0001 32.5999 16.1001V18.3001C32.5999 19.1001 32.0999 20.1001 31.5999 20.6001L27.2999 24.4001C26.6999 24.9001 26.2999 25.9001 26.2999 26.7001V31.0001C26.2999 31.6001 25.8999 32.4001 25.3999 32.7001L23.9999 33.6001C22.6999 34.4001 20.8999 33.5001 20.8999 31.9001V26.6001C20.8999 25.9001 20.4999 25.0001 20.0999 24.5001L16.2999 20.5001C15.7999 20.0001 15.3999 19.1001 15.3999 18.5001V16.2001C15.3999 15.0001 16.2999 14.1001 17.3999 14.1001Z" stroke="#FFFF00" stroke-width="2.5" stroke-miterlimit="10" stroke-linecap="round" stroke-linejoin="round"/>
</svg>
