<svg width="20" height="20" viewBox="0 0 20 20" fill="none" xmlns="http://www.w3.org/2000/svg">
<path d="M14.845 13.6238L18.5439 17.3219L17.3219 18.5439L13.6238 14.845C12.2478 15.948 10.5363 16.548 8.77273 16.5455C4.48218 16.5455 1 13.0633 1 8.77273C1 4.48218 4.48218 1 8.77273 1C13.0633 1 16.5455 4.48218 16.5455 8.77273C16.548 10.5363 15.948 12.2478 14.845 13.6238ZM13.1125 12.983C14.2086 11.8558 14.8207 10.3449 14.8182 8.77273C14.8182 5.43218 12.1124 2.72727 8.77273 2.72727C5.43218 2.72727 2.72727 5.43218 2.72727 8.77273C2.72727 12.1124 5.43218 14.8182 8.77273 14.8182C10.3449 14.8207 11.8558 14.2086 12.983 13.1125L13.1125 12.983Z" fill="black" stroke="black"/>
</svg>
